<?xml version="1.0" encoding="utf-8"?>
<!-- Generator: Adobe Illustrator 27.2.0, SVG Export Plug-In . SVG Version: 6.00 Build 0)  -->
<svg version="1.1" id="Layer_1" xmlns="http://www.w3.org/2000/svg" xmlns:xlink="http://www.w3.org/1999/xlink" x="0px" y="0px"
	 viewBox="0 0 299.1 68" style="enable-background:new 0 0 299.1 68;" xml:space="preserve">
<style type="text/css">
	.st0{fill:#FFFFFF;}
	.st1{enable-background:new    ;}
</style>
<path class="st0" d="M146.1,46.2l12,16.1h-24.7l-8.2-10.9h-2.8v10.9h-19.7V2.6h27.8c7.2,0,13.2,2.4,18,7.3c5,4.9,7.5,10.3,7.5,16.2
	c0,7-2.5,13-7.5,18C147.7,44.9,146.9,45.6,146.1,46.2L146.1,46.2z M122.5,32.1h8c1.7,0,3.1-0.6,4.2-1.8c1.2-1.1,1.8-2.5,1.8-4.2
	s-0.6-3.1-1.8-4.2c-1.1-1.1-2.5-1.7-4.2-1.7h-8V32.1z"/>
<path class="st0" d="M98.5,62.3H29.7C13.3,62.3,0,48.9,0,32.5S13.3,2.8,29.7,2.8h68.7v18.1H29.7c-6.4,0-11.7,5.2-11.7,11.7
	s5.2,11.7,11.7,11.7h68.7V62.3L98.5,62.3z"/>
<path class="st0" d="M98.5,40H42.6V25.3h55.8V40z"/>
<circle class="st0" cx="29.6" cy="32.6" r="7.8"/>
<g class="st1">
	<path class="st0" d="M180.8,15c-0.3,1.5-1,2.7-2,3.5c-1,0.8-2.2,1.2-3.5,1.2c-1.2,0-2.3-0.3-3.1-0.9c-0.8-0.6-1.4-1.2-1.8-2
		c-0.1-0.2-0.2-0.5-0.3-0.7c-0.1-0.2-0.2-0.5-0.2-0.9c-0.1-0.7-0.2-1.9-0.2-3.8c0-1.9,0.1-3.1,0.2-3.8c0.1-0.6,0.3-1.2,0.5-1.5
		c0.4-0.7,1-1.4,1.8-2c0.8-0.6,1.9-0.9,3.1-0.9c1.5,0,2.7,0.5,3.7,1.4c1,0.9,1.6,2.1,1.8,3.4h-2.5c-0.2-0.7-0.5-1.2-1.1-1.7
		c-0.5-0.4-1.2-0.7-1.9-0.7c-0.6,0-1,0.1-1.4,0.3c-0.4,0.2-0.7,0.5-1,0.8c-0.3,0.3-0.5,0.8-0.6,1.3c-0.1,0.6-0.2,1.7-0.2,3.3
		c0,1.6,0.1,2.7,0.2,3.2c0.1,0.6,0.3,1,0.6,1.4c0.3,0.3,0.6,0.6,1,0.8c0.4,0.2,0.9,0.4,1.4,0.4c1.3,0,2.3-0.7,3-2.2H180.8z"/>
	<path class="st0" d="M182.9,3.3h10v2.3h-7.7v4.6h6.5v2.2h-6.5v4.8h7.7v2.3h-10V3.3z"/>
	<path class="st0" d="M195.5,3.3h2.2l7.1,11.5h0V3.3h2.4v16.2H205L197.9,8h0v11.5h-2.4V3.3z"/>
	<path class="st0" d="M213.8,5.5h-4.3V3.3h11v2.2h-4.3v14h-2.4V5.5z"/>
	<path class="st0" d="M222.5,3.3h6.1c1.3,0,2.4,0.4,3.2,1.1c1,0.8,1.5,2,1.6,3.5c0,2.2-1,3.7-3,4.5l3.6,7.2h-2.8l-3.2-6.9h-3v6.9
		h-2.4V3.3z M224.8,10.4h3.6c0.9,0,1.6-0.3,2-0.8c0.4-0.5,0.7-1.1,0.7-1.8c0-0.8-0.3-1.5-0.8-1.8c-0.4-0.3-1-0.5-1.7-0.5h-3.7V10.4z
		"/>
	<path class="st0" d="M236.4,3.3h10v2.3h-7.6v4.6h6.5v2.2h-6.5v4.8h7.6v2.3h-10V3.3z"/>
	<path class="st0" d="M254.5,3.3h10v2.3h-7.7v4.8h6.5v2.2h-6.5v6.9h-2.4V3.3z"/>
	<path class="st0" d="M266.2,11.4c0-1.9,0.1-3.1,0.2-3.8c0.1-0.6,0.3-1.2,0.5-1.5c0.4-0.7,1-1.4,1.8-2c0.8-0.6,1.9-0.9,3.1-0.9
		c1.2,0,2.3,0.3,3.1,0.9c0.8,0.6,1.4,1.3,1.8,2c0.3,0.4,0.4,0.9,0.5,1.5c0.1,0.6,0.1,1.9,0.1,3.8c0,1.9,0,3.1-0.1,3.8
		c-0.1,0.7-0.3,1.2-0.5,1.6c-0.4,0.7-1,1.4-1.8,2c-0.8,0.6-1.9,0.9-3.1,0.9c-1.2,0-2.3-0.3-3.1-0.9c-0.8-0.6-1.4-1.2-1.8-2
		c-0.1-0.2-0.2-0.5-0.3-0.7c-0.1-0.2-0.2-0.5-0.2-0.9C266.2,14.6,266.2,13.3,266.2,11.4z M268.5,11.4c0,1.6,0.1,2.7,0.2,3.2
		c0.1,0.6,0.3,1,0.6,1.4c0.3,0.3,0.6,0.6,1,0.8c0.4,0.2,0.9,0.4,1.4,0.4c0.6,0,1.1-0.1,1.5-0.4c0.4-0.2,0.7-0.5,0.9-0.8
		c0.3-0.3,0.5-0.8,0.6-1.4c0.1-0.6,0.2-1.6,0.2-3.2c0-1.6-0.1-2.7-0.2-3.3c-0.1-0.5-0.3-1-0.6-1.3c-0.2-0.3-0.6-0.6-0.9-0.8
		c-0.4-0.2-0.9-0.3-1.5-0.3c-0.6,0-1,0.1-1.4,0.3c-0.4,0.2-0.7,0.5-1,0.8c-0.3,0.3-0.5,0.8-0.6,1.3C268.6,8.8,268.5,9.9,268.5,11.4z
		"/>
	<path class="st0" d="M280.6,3.3h6.1c1.3,0,2.4,0.4,3.2,1.1c1,0.8,1.5,2,1.6,3.5c0,2.2-1,3.7-3,4.5l3.6,7.2h-2.8l-3.2-6.9h-3v6.9
		h-2.4V3.3z M282.9,10.4h3.6c0.9,0,1.6-0.3,2-0.8c0.4-0.5,0.7-1.1,0.7-1.8c0-0.8-0.3-1.5-0.8-1.8c-0.4-0.3-1-0.5-1.7-0.5h-3.7V10.4z
		"/>
</g>
<g class="st1">
	<path class="st0" d="M170.2,24.4h2.4v16.2h-2.4V24.4z"/>
	<path class="st0" d="M182.4,24.4h2.2l4.5,10.6l4.4-10.6h2.2v16.2h-2.4V30.5h-0.1l-3.3,7.8h-2l-3.3-7.8h0v10.1h-2.4V24.4z"/>
</g>
<g class="st1">
	<path class="st0" d="M214.2,37h-6l-1.2,3.6h-2.5l5.7-16.2h2l5.7,16.2h-2.5L214.2,37z M213.5,34.9l-2.3-7.1h0l-2.3,7.1H213.5z"/>
</g>
<g class="st1">
	<path class="st0" d="M231.1,31.7h5.6V35c0,1.6-0.6,3-1.6,4.1c-1.1,1.1-2.4,1.6-4,1.7c-1.2,0-2.3-0.3-3.1-0.9
		c-0.8-0.6-1.4-1.2-1.8-2c-0.1-0.2-0.2-0.5-0.3-0.7c-0.1-0.2-0.2-0.5-0.2-0.9c-0.1-0.7-0.2-1.9-0.2-3.8c0-1.9,0.1-3.1,0.2-3.8
		c0.1-0.6,0.3-1.2,0.5-1.5c0.4-0.7,1-1.4,1.8-2c0.8-0.6,1.9-0.9,3.1-0.9c1.5,0,2.7,0.5,3.7,1.4c1,0.9,1.6,2.1,1.8,3.4H234
		c-0.2-0.7-0.5-1.2-1.1-1.7c-0.5-0.4-1.2-0.7-1.9-0.7c-0.6,0-1,0.1-1.4,0.3c-0.4,0.2-0.7,0.5-1,0.8c-0.3,0.3-0.5,0.8-0.6,1.3
		c-0.1,0.6-0.2,1.7-0.2,3.3c0,1.6,0.1,2.7,0.2,3.2c0.1,0.6,0.3,1,0.6,1.4c0.3,0.3,0.6,0.6,1,0.8c0.4,0.2,0.9,0.4,1.4,0.4
		c0.9,0,1.7-0.3,2.3-1c0.6-0.6,0.9-1.4,0.9-2.5V34h-3.2V31.7z"/>
	<path class="st0" d="M246.2,24.4h2.4v16.2h-2.4V24.4z"/>
	<path class="st0" d="M258.5,24.4h2.2l7.1,11.5h0V24.4h2.4v16.2H268l-7.1-11.5h0v11.5h-2.4V24.4z"/>
	<path class="st0" d="M285.5,31.7h5.6V35c0,1.6-0.6,3-1.6,4.1c-1.1,1.1-2.4,1.6-4,1.7c-1.2,0-2.3-0.3-3.1-0.9
		c-0.8-0.6-1.4-1.2-1.8-2c-0.1-0.2-0.2-0.5-0.3-0.7c-0.1-0.2-0.2-0.5-0.2-0.9c-0.1-0.7-0.2-1.9-0.2-3.8c0-1.9,0.1-3.1,0.2-3.8
		c0.1-0.6,0.3-1.2,0.5-1.5c0.4-0.7,1-1.4,1.8-2c0.8-0.6,1.9-0.9,3.1-0.9c1.5,0,2.7,0.5,3.7,1.4c1,0.9,1.6,2.1,1.8,3.4h-2.5
		c-0.2-0.7-0.5-1.2-1.1-1.7c-0.5-0.4-1.2-0.7-1.9-0.7c-0.6,0-1,0.1-1.4,0.3c-0.4,0.2-0.7,0.5-1,0.8c-0.3,0.3-0.5,0.8-0.6,1.3
		c-0.1,0.6-0.2,1.7-0.2,3.3c0,1.6,0.1,2.7,0.2,3.2c0.1,0.6,0.3,1,0.6,1.4c0.3,0.3,0.6,0.6,1,0.8c0.4,0.2,0.9,0.4,1.4,0.4
		c0.9,0,1.7-0.3,2.3-1c0.6-0.6,0.9-1.4,0.9-2.5V34h-3.2V31.7z"/>
</g>
<g class="st1">
	<path class="st0" d="M170.2,45.5h6.1c1.3,0,2.4,0.4,3.2,1.1c1,0.8,1.5,2,1.6,3.5c0,2.2-1,3.7-3,4.5l3.6,7.2h-2.8l-3.2-6.9h-3v6.9
		h-2.4V45.5z M172.6,52.6h3.6c0.9,0,1.6-0.3,2-0.8c0.4-0.5,0.7-1.1,0.7-1.8c0-0.8-0.3-1.5-0.8-1.8c-0.4-0.3-1-0.5-1.7-0.5h-3.7V52.6
		z"/>
	<path class="st0" d="M186.6,45.5h10v2.3H189v4.6h6.5v2.2H189v4.8h7.6v2.3h-10V45.5z"/>
	<path class="st0" d="M201.9,57.8c1.2,1.1,2.7,1.6,4.5,1.6c2,0,3.1-0.8,3.1-2.3c0-1.2-0.7-1.9-2-2.2c-0.6-0.1-1.3-0.2-2.1-0.3
		c-1.3-0.2-2.4-0.7-3.1-1.5c-0.7-0.8-1.1-1.8-1.1-3c0-1.4,0.5-2.6,1.4-3.4c0.9-0.9,2.1-1.3,3.8-1.3c2,0,3.6,0.6,5.1,1.7l-1.3,2
		c-1.2-0.8-2.5-1.2-3.9-1.2c-0.7,0-1.3,0.2-1.8,0.6c-0.5,0.4-0.8,1-0.8,1.8c0,0.5,0.2,0.9,0.5,1.3c0.4,0.4,0.9,0.7,1.7,0.8
		c0.4,0.1,1,0.2,1.8,0.3c1.5,0.2,2.6,0.8,3.3,1.6c0.7,0.9,1,1.9,1,3c-0.1,3.1-1.9,4.7-5.5,4.7c-2.3,0-4.3-0.7-6-2.2L201.9,57.8z"/>
	<path class="st0" d="M217.3,45.5h10v2.3h-7.7v4.6h6.5v2.2h-6.5v4.8h7.7v2.3h-10V45.5z"/>
	<path class="st0" d="M240.5,58.1h-6l-1.2,3.6h-2.5l5.7-16.2h2l5.7,16.2h-2.5L240.5,58.1z M239.8,56l-2.3-7.1h0l-2.3,7.1H239.8z"/>
	<path class="st0" d="M248.9,45.5h6.1c1.3,0,2.4,0.4,3.2,1.1c1,0.8,1.5,2,1.6,3.5c0,2.2-1,3.7-3,4.5l3.6,7.2h-2.8l-3.2-6.9h-3v6.9
		h-2.4V45.5z M251.2,52.6h3.6c0.9,0,1.6-0.3,2-0.8c0.4-0.5,0.7-1.1,0.7-1.8c0-0.8-0.3-1.5-0.8-1.8c-0.4-0.3-1-0.5-1.7-0.5h-3.7V52.6
		z"/>
	<path class="st0" d="M275.8,57.2c-0.3,1.5-1,2.7-2,3.5c-1,0.8-2.2,1.2-3.5,1.2c-1.2,0-2.3-0.3-3.1-0.9c-0.8-0.6-1.4-1.2-1.8-2
		c-0.1-0.2-0.2-0.5-0.3-0.7c-0.1-0.2-0.2-0.5-0.2-0.9c-0.1-0.7-0.2-1.9-0.2-3.8c0-1.9,0.1-3.1,0.2-3.8c0.1-0.6,0.3-1.2,0.5-1.5
		c0.4-0.7,1-1.4,1.8-2c0.8-0.6,1.9-0.9,3.1-0.9c1.5,0,2.7,0.5,3.7,1.4c1,0.9,1.6,2.1,1.8,3.4h-2.5c-0.2-0.7-0.5-1.2-1.1-1.7
		c-0.5-0.4-1.2-0.7-1.9-0.7c-0.6,0-1,0.1-1.4,0.3c-0.4,0.2-0.7,0.5-1,0.8c-0.3,0.3-0.5,0.8-0.6,1.3c-0.1,0.6-0.2,1.7-0.2,3.3
		c0,1.6,0.1,2.7,0.2,3.2c0.1,0.6,0.3,1,0.6,1.4c0.3,0.3,0.6,0.6,1,0.8c0.4,0.2,0.9,0.4,1.4,0.4c1.3,0,2.3-0.7,3-2.2H275.8z"/>
	<path class="st0" d="M289,54.7h-6.2v7.1h-2.4V45.5h2.4v6.9h6.2v-6.9h2.4v16.2H289V54.7z"/>
</g>
</svg>
