<?xml version="1.0" encoding="utf-8"?>
<!-- Generator: Adobe Illustrator 27.3.1, SVG Export Plug-In . SVG Version: 6.00 Build 0)  -->
<svg version="1.1" id="Layer_1" xmlns="http://www.w3.org/2000/svg" xmlns:xlink="http://www.w3.org/1999/xlink" x="0px" y="0px"
	 viewBox="0 0 340.2 340.2" style="enable-background:new 0 0 340.2 340.2;" xml:space="preserve">
<style type="text/css">
	.st0{fill:#FFFFFF;}
</style>
<path class="st0" d="M301.7,196.3l23.3,31.1h-47.8l-15.8-21.1H256v21.1h-38.2V111.8h53.7c13.9,0,25.5,4.7,34.8,14.1
	c9.7,9.5,14.5,20,14.5,31.4c0,13.6-4.8,25.2-14.5,34.8C304.9,193.6,303.3,195,301.7,196.3L301.7,196.3z M256,168.9h15.6
	c3.2,0,5.9-1.2,8.1-3.5c2.3-2.2,3.4-4.9,3.4-8.1c0-3.2-1.1-6-3.4-8.1c-2.2-2.2-4.9-3.3-8.1-3.3H256V168.9z"/>
<path class="st0" d="M209.5,227.3h-133c-31.7,0-57.5-25.8-57.5-57.5s25.8-57.5,57.5-57.5h133v34.9h-133c-12.5,0-22.6,10.1-22.6,22.6
	c0,12.5,10.1,22.6,22.6,22.6h133V227.3L209.5,227.3z"/>
<path class="st0" d="M209.5,184.2H101.5v-28.6h108.1V184.2z"/>
<circle class="st0" cx="76.2" cy="169.9" r="15.1"/>
</svg>
