<?xml version="1.0" encoding="UTF-8"?><svg id="Layer_1" xmlns="http://www.w3.org/2000/svg" viewBox="0 0 299.12 68"><defs><style>.cls-1{font-family:DINAlternate-Bold, 'DIN Alternate';font-size:22.76px;font-weight:700;}.cls-2{letter-spacing:.26em;}.cls-3{letter-spacing:.11em;}.cls-4{letter-spacing:.28em;}.cls-5{letter-spacing:.28em;}</style></defs><path d="m146.1,46.24l12.04,16.08h-24.68l-8.17-10.88h-2.79v10.88h-19.73V2.61h27.77c7.19,0,13.18,2.42,17.97,7.27,4.99,4.93,7.48,10.35,7.48,16.25,0,7.02-2.49,13.01-7.48,17.97-.77.77-1.58,1.49-2.41,2.15Zm-23.6-14.15h8.04c1.66,0,3.05-.6,4.17-1.81,1.17-1.12,1.76-2.51,1.76-4.17s-.59-3.1-1.76-4.21c-1.12-1.12-2.51-1.68-4.17-1.68h-8.04v11.87Z"/><path d="m98.46,62.28H29.74C13.34,62.28,0,48.94,0,32.54S13.34,2.81,29.74,2.81h68.72v18.06H29.74c-6.44,0-11.68,5.24-11.68,11.68s5.24,11.68,11.68,11.68h68.72v18.06Z"/><path d="m98.46,40.01h-55.85v-14.76h55.85v14.76Z"/><circle cx="29.57" cy="32.63" r="7.8"/><text class="cls-1" transform="translate(168.55 19.55)"><tspan x="0" y="0">CENTRE FOR</tspan><tspan class="cls-4" x="0" y="21.1">IM</tspan><tspan class="cls-2" x="35.91" y="21.1">A</tspan><tspan class="cls-5" x="55.78" y="21.1">GING</tspan><tspan class="cls-3"><tspan x="0" y="42.2">RESEARCH</tspan></tspan></text></svg>